<svg xmlns="http://www.w3.org/2000/svg" xmlns:xlink="http://www.w3.org/1999/xlink" xml:space="preserve" viewBox="0 0 24 24"><defs><path id="a" d="M-3.8.3h31.4v23.5H-3.8z"/></defs><clipPath id="b"><use xlink:href="#a" style="overflow:visible"/></clipPath><path d="M11.3 4.6h2.8c.8 2.8 1.7 5.6 2.6 8.5h-2.2c-.2-.6-.3-1.2-.5-1.8 0 0 0-.1-.1-.1h-2.5c-.2.6-.3 1.2-.5 1.8H8.8c.9-2.7 1.7-5.6 2.5-8.4M12.7 6v.2c-.3 1.2-.5 2.3-.8 3.5h1.7c-.3-1.1-.6-2.3-.8-3.4 0-.1-.1-.2-.1-.3M8.9 18.2c.3-.2.6-.3 1-.3.3 0 .7.1.9.3s.3.5.3.7h-.7c0-.2-.1-.3-.2-.4-.2-.1-.5-.1-.6.1-.1.1-.1.3-.1.4v1c0 .1 0 .3.1.4s.2.2.4.2c.1 0 .3 0 .4-.1s.1-.2.1-.4h.7c0 .3-.1.6-.3.8s-.6.3-.9.3-.7-.1-1-.3q-.3-.3-.3-.9v-1c-.2-.2-.1-.6.2-.8M12.2 18h1.1c.3 1.1.6 2.1 1 3.2h-.8c-.1-.2-.1-.5-.2-.7h-1c-.1.2-.1.5-.2.7h-.8c.2-1.1.6-2.2.9-3.2m.5.5c-.1.5-.2.9-.3 1.4h.7c-.2-.5-.3-.9-.4-1.4M14.6 18h.8c.3 0 .6 0 .9.1s.6.3.7.6.1.7.1 1.1-.1.7-.3 1c-.3.3-.7.4-1.1.4h-1.1zm.8.5v2.1c.2 0 .4 0 .6-.1.1-.1.3-.2.3-.3.1-.3 0-.5 0-.8 0-.2 0-.5-.2-.7s-.5-.1-.7-.2" style="clip-path:url(#b);fill:#fff"/><path d="M4.2 1.7c.2-.2.5-.4.8-.5v15.3c-.4.3-.9.5-1.3.8-.1 0-.1.1-.2.1-.6.3-1.2.7-1.8 1.1V3.2c.8-.5 1.6-1 2.5-1.5M12.7 6c0 .1 0 .1.1.2 0 0 0-.1-.1-.1v.1z" style="clip-path:url(#b);fill:#e85984"/><path d="M5 1.2h14.9c.4.1.8.6.8 1v14.2H5.1C5 11.4 5 6.3 5 1.2m6.3 3.4c-.8 2.8-1.6 5.6-2.4 8.5H11c.2-.6.3-1.2.5-1.8H14l.1.1c.2.6.3 1.2.5 1.8h2.2c-.8-2.8-1.7-5.6-2.5-8.5-1.1-.1-2-.1-3-.1" style="clip-path:url(#b);fill:#e51050"/><path d="M12.7 6.2s.1 0 0 0c.3 1.2.6 2.4.9 3.5h-1.7c.2-1.2.5-2.3.8-3.5" style="clip-path:url(#b);fill:#e51050"/><path d="M20.6 4.6h1.5v18.3H4.7c-.2 0-.4 0-.6-.1-.4-.1-.7-.6-.7-1v-4.5c.1 0 .1-.1.2-.1.5-.2.9-.5 1.4-.7h15.6c.1 0 0-.1 0-.1zM8.9 18.2c-.3.2-.4.6-.4.9v1q0 .45.3.9c.3.2.6.3 1 .3.3 0 .7-.1.9-.3s.3-.5.3-.8h-.7c0 .1 0 .3-.1.4s-.3.1-.4.1-.3-.1-.4-.2-.1-.3-.1-.4v-1c0-.1 0-.3.1-.4.2-.2.4-.2.6-.1s.2.2.2.4h.7c0-.3-.1-.5-.3-.7s-.6-.3-.9-.3c-.2-.1-.6 0-.8.2m3.3-.2c-.3 1.1-.6 2.1-.9 3.2h.8c.1-.2.1-.5.2-.7h1c.1.2.1.5.2.7h.8c-.3-1.1-.6-2.1-1-3.2zm2.4 0v3.2h1.1c.4 0 .8-.1 1.1-.4s.3-.6.3-1 0-.7-.1-1.1c-.1-.3-.4-.6-.7-.6-.3-.1-.6-.1-.9-.1z" style="clip-path:url(#b);fill:#770829"/><path d="M12.7 18.5c.1.5.2.9.3 1.4h-.7c.2-.5.3-.9.4-1.4M15.4 18.5c.2 0 .5 0 .7.1.2.2.2.5.2.7v.8c0 .1-.1.3-.3.3-.2.1-.4 0-.6.1z" style="clip-path:url(#b);fill:#770829"/></svg>