<svg xmlns="http://www.w3.org/2000/svg" xml:space="preserve" id="Capa_1" x="0" y="0" version="1.1" viewBox="0 0 24 24"><style>.st0{fill:#2563eb}</style><path d="M20.6 6.6 14.3 3s-1-.6-2.6-.6c-1.7 0-2.6.6-2.6.6L3.2 6.3l8.9 5.1v10.3l5.8-3.3s1-.6 1.8-1.9c.7-1.2.8-2.4.8-2.4V6.6zm-9.5 1.6s1.3-.2 2.4.4 1.7 1 1.7 1v2.2c0 1.1-.9 2.2-.9 2.2v-3.9zm5.1 8.5-1.9 1.1v-1l1.5-.8c1.4-1 1.6-2.5 1.6-3V8.4l-4-2.3s-.6-.4-1.7-.4C10.6 5.6 10 6 10 6l-1.4.8-.9-.5 2-1.1s.8-.4 2-.4 2.1.5 2.1.5l4.6 2.6v5c0 .7-.4 2.6-2.2 3.8" class="st0"/><path d="M2.8 9.6 9 13.2v1.1l-3.5-2-2.2 1.3L9 16.8v1l-6.2-3.5c0 .4.4 1.7 1.1 2.7s1.6 1.4 1.6 1.4l5.7 3.3v-9.8L2.8 7.1z" class="st0"/></svg>